<svg xmlns="http://www.w3.org/2000/svg" width="18" height="18" fill="none" viewBox="0 0 18 18"><path fill="#353333" d="M9.85662 0.666748C10.7941 0.669248 11.27 0.674248 11.6808 0.685915L11.8425 0.691748C12.0291 0.698415 12.2133 0.706748 12.4358 0.716748C13.3225 0.758415 13.9275 0.898415 14.4583 1.10425C15.0083 1.31591 15.4716 1.60258 15.935 2.06508C16.3587 2.48166 16.6866 2.98557 16.8958 3.54175C17.1016 4.07258 17.2416 4.67758 17.2833 5.56508C17.2933 5.78675 17.3016 5.97092 17.3083 6.15842L17.3133 6.32008C17.3258 6.73008 17.3308 7.20591 17.3325 8.14341L17.3333 8.76508V9.85675C17.3353 10.4646 17.3289 11.0724 17.3141 11.6801L17.3091 11.8417C17.3025 12.0292 17.2941 12.2134 17.2841 12.4351C17.2425 13.3226 17.1008 13.9267 16.8958 14.4584C16.6872 15.0149 16.3592 15.5189 15.935 15.9351C15.5183 16.3587 15.0144 16.6865 14.4583 16.8959C13.9275 17.1017 13.3225 17.2417 12.4358 17.2834C12.238 17.2927 12.0403 17.3011 11.8425 17.3084L11.6808 17.3134C11.27 17.3251 10.7941 17.3309 9.85662 17.3326L9.23495 17.3334H8.14412C7.536 17.3355 6.92789 17.3291 6.31995 17.3142L6.15829 17.3092C5.96046 17.3018 5.76268 17.2931 5.56495 17.2834C4.67829 17.2417 4.07329 17.1017 3.54162 16.8959C2.98551 16.6871 2.4818 16.3591 2.06579 15.9351C1.64166 15.5187 1.31347 15.0147 1.10412 14.4584C0.898285 13.9276 0.758285 13.3226 0.716618 12.4351C0.707334 12.2373 0.699001 12.0396 0.691619 11.8417L0.687452 11.6801C0.672095 11.0724 0.66515 10.4646 0.666619 9.85675V8.14341C0.664293 7.53558 0.670404 6.92775 0.684952 6.32008L0.690785 6.15842C0.697452 5.97092 0.705785 5.78675 0.715785 5.56508C0.757452 4.67758 0.897452 4.07341 1.10329 3.54175C1.31255 2.985 1.64139 2.48093 2.06662 2.06508C2.48253 1.64131 2.98591 1.3134 3.54162 1.10425C4.07329 0.898415 4.67745 0.758415 5.56495 0.716748C5.78662 0.706748 5.97162 0.698415 6.15829 0.691748L6.31995 0.686748C6.92761 0.671942 7.53545 0.665552 8.14329 0.667581L9.85662 0.666748ZM8.99995 4.83342C7.89488 4.83342 6.83508 5.2724 6.05367 6.0538C5.27227 6.83521 4.83329 7.89501 4.83329 9.00008C4.83329 10.1052 5.27227 11.165 6.05367 11.9464C6.83508 12.7278 7.89488 13.1667 8.99995 13.1667C10.105 13.1667 11.1648 12.7278 11.9462 11.9464C12.7276 11.165 13.1666 10.1052 13.1666 9.00008C13.1666 7.89501 12.7276 6.83521 11.9462 6.0538C11.1648 5.2724 10.105 4.83342 8.99995 4.83342ZM8.99995 6.50008C9.32826 6.50003 9.65336 6.56464 9.95669 6.69022C10.26 6.81581 10.5357 6.99991 10.7678 7.23202C11 7.46413 11.1842 7.7397 11.3099 8.04299C11.4356 8.34628 11.5003 8.67136 11.5004 8.99967C11.5004 9.32797 11.4358 9.65307 11.3102 9.95641C11.1846 10.2597 11.0005 10.5354 10.7684 10.7676C10.5363 10.9997 10.2608 11.1839 9.95746 11.3096C9.65417 11.4353 9.32909 11.5 9.00079 11.5001C8.33774 11.5001 7.70186 11.2367 7.23302 10.7678C6.76418 10.299 6.50079 9.66312 6.50079 9.00008C6.50079 8.33704 6.76418 7.70116 7.23302 7.23231C7.70186 6.76347 8.33774 6.50008 9.00079 6.50008M13.3758 3.58341C13.0995 3.58341 12.8346 3.69316 12.6392 3.88851C12.4439 4.08386 12.3341 4.34881 12.3341 4.62508C12.3341 4.90135 12.4439 5.1663 12.6392 5.36165C12.8346 5.557 13.0995 5.66675 13.3758 5.66675C13.6521 5.66675 13.917 5.557 14.1124 5.36165C14.3077 5.1663 14.4175 4.90135 14.4175 4.62508C14.4175 4.34881 14.3077 4.08386 14.1124 3.88851C13.917 3.69316 13.6521 3.58341 13.3758 3.58341Z"/></svg>